<svg xmlns="http://www.w3.org/2000/svg" viewBox="0 0 200 200" fill="none">
  <!-- Green Leaf (Left) -->
  <path d="M60 170 C10 130, 15 70, 70 50 C80 45, 90 50, 95 60 C100 75, 85 100, 70 115 C55 130, 50 145, 60 170Z" fill="#34A853"/>
  <path d="M75 160 C45 130, 50 85, 80 65 C85 62, 90 65, 92 70 C95 80, 85 100, 75 110 C65 125, 65 145, 75 160Z" fill="#2D9248" opacity="0.5"/>
  <!-- Orange Flame (Center) -->
  <path d="M100 110 C95 85, 100 55, 105 35 C108 25, 115 20, 118 30 C125 50, 130 75, 115 100 C110 108, 105 112, 100 110Z" fill="#F5A623"/>
  <path d="M105 105 C102 85, 105 60, 108 45 C110 38, 114 35, 116 42 C120 55, 122 75, 112 95 C109 102, 107 106, 105 105Z" fill="#F7B731" opacity="0.6"/>
  <!-- Blue Leaf (Right) -->
  <path d="M140 170 C190 130, 175 75, 125 55 C118 52, 110 55, 108 62 C105 75, 115 95, 125 110 C135 125, 145 145, 140 170Z" fill="#4AADE4"/>
  <path d="M130 155 C160 130, 155 85, 130 68 C125 65, 120 67, 118 72 C115 80, 120 95, 128 108 C135 120, 135 140, 130 155Z" fill="#3D9AD1" opacity="0.5"/>
</svg>
